PathFileType	4	(X/Y/Z)	C:/Users/alexw/Dropbox/ABI/BIOMENG 771 Files/BIOMENG_771/KinematicsLab/Left.trc	
DataRate	CameraRate	NumFrames	NumMarkers	Units	OrigDataRate	OrigDataStartFrame	OrigNumFrames	
120.00	120.00	27	8	mm	120.00	932	1491	
Frame#	Time	RAsis			LAsis			RPsis			LPsis			LThighSuperior			LThighInferior			LThighLateral			LPatella			
		X1	Y1	Z1	X2	Y2	Z2	X3	Y3	Z3	X4	Y4	Z4	X5	Y5	Z5	X6	Y6	Z6	X7	Y7	Z7	X8	Y8	Z8	

932	7.758	-586.67743	95.69034	991.06488	-315.19644	99.09212	1011.33185	-475.12680	312.37134	1020.39691	-415.47504	314.13660	1024.48950	-263.57288	172.87740	827.98975	-286.80582	153.19104	577.55615	-311.04114	98.85555	689.36243	-333.67178	122.33456	483.28845 
933	7.767	-586.48755	95.98515	991.21448	-314.89777	99.04585	1011.39319	-474.46393	312.43311	1019.86554	-414.80154	314.13257	1023.96301	-263.13580	170.27904	828.27081	-286.72125	147.47784	578.23004	-311.31165	95.01205	690.45123	-334.19220	115.63634	484.52545 
934	7.775	-586.34058	96.31821	991.35510	-314.67456	98.95831	1011.52448	-473.77634	312.57529	1019.47656	-414.15210	314.05960	1023.50092	-262.75839	167.61089	828.64520	-286.80197	141.94263	578.93195	-311.68903	91.25371	691.71509	-334.70117	109.12877	485.94724 
935	7.783	-586.29974	96.65298	991.52167	-314.46060	98.65725	1011.65253	-473.00220	312.62735	1018.91547	-413.37158	313.83997	1023.05896	-262.49698	164.98256	829.06482	-286.79413	136.41478	579.66382	-312.28189	87.54053	693.01849	-335.14075	102.70021	487.05206 
936	7.792	-586.24243	97.01538	991.67731	-314.25909	98.28899	1011.73254	-472.22192	312.56659	1018.47626	-412.52496	313.60794	1022.65393	-262.10049	162.46977	829.46021	-286.51041	131.09167	580.43622	-312.90799	83.87389	694.19531	-335.09726	96.66302	488.39325 
937	7.800	-586.11310	97.28741	991.76495	-314.00864	97.81554	1011.83765	-471.40536	312.50391	1018.20099	-411.71661	313.31290	1022.26947	-261.73334	159.87666	829.66803	-286.20319	125.87746	581.16522	-313.47949	80.20538	695.49756	-334.95032	90.50746	489.66458 
938	7.808	-585.98468	97.44496	991.87036	-313.91760	97.25651	1011.88306	-470.24744	312.42810	1017.80157	-410.72223	313.08527	1021.81403	-261.39365	157.25006	829.92639	-285.86847	120.77237	581.85944	-314.06622	76.72188	696.67926	-334.60434	84.62526	490.86172 
939	7.817	-585.92865	97.58672	992.00604	-313.88525	96.52495	1011.94202	-469.23087	312.30295	1017.49902	-409.57712	312.67001	1021.40637	-261.20242	154.55156	830.15100	-285.50656	115.80265	582.58447	-314.61124	73.21299	697.81024	-334.42706	78.54167	492.26508 
940	7.825	-585.91943	97.67430	992.23956	-313.83768	95.67550	1011.98090	-468.20496	312.00021	1017.11194	-408.39645	312.15182	1020.97400	-261.07556	151.83350	830.30267	-285.37814	111.00289	583.19885	-315.10156	69.53465	698.99329	-334.17380	73.10365	493.41272 
941	7.833	-585.73743	97.69715	992.47119	-313.77750	94.79722	1012.06659	-467.00449	311.74222	1016.82855	-407.21960	311.65115	1020.69006	-260.87936	149.18774	830.50598	-285.08688	106.40207	583.83148	-315.58014	65.98750	700.12036	-334.14819	67.83670	494.47256 
942	7.842	-585.45593	97.76600	992.67639	-313.56479	93.85789	1012.15088	-465.71448	311.48038	1016.49182	-405.98788	311.07083	1020.32587	-260.43436	146.57584	830.68481	-284.90970	101.91032	584.40259	-315.57928	62.78716	701.05261	-334.16385	62.70852	495.59210 
943	7.850	-585.19867	97.81213	992.84845	-313.37778	92.96507	1012.20184	-464.45566	311.08722	1016.24365	-404.68704	310.41748	1019.99579	-260.21167	144.06392	830.81671	-284.87769	97.72559	584.90802	-315.64343	59.42002	701.89838	-334.18948	57.95665	496.69183 
944	7.858	-585.09558	97.84198	993.02405	-313.29636	91.85872	1012.27460	-463.27798	310.70383	1015.96497	-403.42740	309.77109	1019.65155	-259.95590	141.64232	830.78595	-284.94800	93.97459	585.31708	-315.48718	56.11367	702.59869	-334.48062	53.67025	497.60669 
945	7.867	-584.90747	97.83025	993.20862	-313.02008	90.87532	1012.35095	-461.84241	310.22043	1015.68091	-402.01788	309.05301	1019.23694	-259.57529	139.33655	830.85321	-285.19370	90.47497	585.62427	-315.33923	52.84187	703.36487	-334.99271	49.52052	498.53619 
946	7.875	-584.64746	97.75010	993.42383	-312.71768	89.84512	1012.55029	-460.70657	309.75330	1015.38080	-400.78223	308.32260	1018.95850	-259.15848	137.01027	831.04956	-285.52814	87.17345	585.95056	-315.03690	49.88362	703.88672	-335.75873	45.67966	499.59198 
947	7.883	-584.42438	97.70520	993.73218	-312.48837	88.62296	1012.66901	-459.40726	309.11487	1015.10486	-399.54883	307.44318	1018.55463	-258.11887	134.41899	831.54535	-286.00412	84.05578	586.29553	-314.60364	47.01155	704.48218	-336.77328	42.08572	500.57339 
948	7.892	-584.10406	97.59200	994.02344	-312.21246	87.43806	1012.92950	-458.19086	308.60364	1014.78436	-398.21097	306.58038	1018.24591	-257.70767	132.18993	831.54303	-286.75354	81.18105	586.54059	-314.24420	44.24829	704.87231	-337.96793	38.95956	501.41467 
949	7.900	-583.82654	97.46511	994.35681	-311.93182	86.24870	1013.02557	-456.71335	307.85266	1014.40198	-396.96860	305.60098	1017.85150	-257.32159	129.92958	831.56635	-287.56421	78.42265	586.74023	-314.04642	41.91829	705.09637	-339.15106	35.85497	502.34808 
950	7.908	-583.56287	97.24576	994.63281	-311.51730	84.75965	1013.19330	-455.40051	307.27344	1014.08435	-395.55829	304.62225	1017.56287	-256.95935	127.89118	831.54169	-288.30768	75.87978	586.96100	-313.57468	39.57625	705.24023	-340.12231	33.44394	503.23776 
951	7.917	-583.31995	96.97778	994.89264	-311.33420	83.39071	1013.33289	-454.06757	306.50732	1013.82721	-394.26547	303.56247	1017.24988	-256.81787	125.78112	831.63715	-288.85806	73.60139	587.07269	-313.32199	37.80334	705.29846	-341.13391	31.12940	504.12573 
952	7.925	-583.11304	96.66665	995.17419	-311.20483	81.75209	1013.47998	-452.87738	305.77780	1013.55762	-393.07849	302.45090	1016.98291	-256.92508	123.29736	831.70282	-289.34753	71.73285	587.04047	-313.05786	36.08238	705.32428	-342.01559	29.36120	504.70822 
953	7.933	-582.85168	96.34176	995.47546	-311.09970	80.06979	1013.57867	-451.42444	304.89761	1013.31122	-391.73053	301.26758	1016.66937	-257.13440	120.98888	831.74677	-289.60291	69.97150	587.05786	-312.99155	34.99112	705.22742	-342.62823	27.69926	505.42688 
954	7.942	-582.59033	96.06393	995.69788	-310.96115	78.32139	1013.66864	-449.95114	304.03708	1013.01196	-390.38782	299.98090	1016.34265	-256.67899	119.08899	831.65668	-289.88336	68.80521	586.78955	-312.87723	33.93134	705.04742	-342.86850	26.89894	505.45667 
955	7.950	-582.46051	95.69502	996.00079	-310.76086	76.59592	1013.79919	-448.55002	303.01157	1012.60925	-389.13010	298.66061	1015.96704	-255.96892	117.60286	831.53754	-289.82770	68.05376	586.46136	-312.91757	33.08764	704.79309	-343.04419	26.40156	505.40582 
956	7.958	-582.30981	95.31811	996.35675	-310.61325	74.80612	1013.75500	-447.06329	302.00958	1012.13129	-387.72620	297.38062	1015.48761	-255.43349	116.34664	831.22308	-289.78317	67.66214	585.80737	-313.04330	32.47411	704.34509	-343.21771	26.42857	505.12314 
957	7.967	-582.22894	94.96925	996.70245	-310.56674	73.04456	1013.75916	-445.71219	300.87723	1011.62744	-386.22574	296.05350	1015.04340	-254.92159	115.04900	830.69751	-289.74786	67.58723	585.11060	-313.12866	31.80727	703.69885	-343.53796	26.75360	504.75952 
958	7.975	-582.10931	94.68929	997.00964	-310.51227	71.36237	1013.59607	-444.31345	299.90640	1011.30878	-384.86740	294.75131	1014.52527	-254.35829	113.89529	830.21411	-289.72653	68.06616	584.36829	-313.07974	31.29920	703.11737	-343.91656	27.41971	504.41714 
